# xmcd
#
# Track frame offsets: 
#        150
#        16055
#        39115
#        58053
#        81067
#        106891
#        128041
#        144318
#        168379
#        189553
#
# Disc length: 2887 seconds
#
# Revision: 0
# Processed by: cddbd v1.5.2PL0 Copyright (c) Steve Scherf et al.
# Submitted via: ExactAudioCopyFreeDBPlugin 1.0
#
DISCID=740b450a
DTITLE=松井恵子 - 小さな小さな話がしたい
DYEAR=2005
DGENRE=Indie
TTITLE0=青空に釣糸たれて
TTITLE1=OKITE
TTITLE2=いっしょにごはん
TTITLE3=南風
TTITLE4=約束の糸
TTITLE5=すいそうの中の魚
TTITLE6=魔女を誓う
TTITLE7=まるまる
TTITLE8=飛ぶ
TTITLE9=小さな小さな話がしたい
EXTD=
EXTT0=
EXTT1=
EXTT2=
EXTT3=
EXTT4=
EXTT5=
EXTT6=
EXTT7=
EXTT8=
EXTT9=
PLAYORDER=
